<svg width="252" height="300" viewBox="0 0 252 300" fill="none" xmlns="http://www.w3.org/2000/svg">
<g opacity="0.05">
<path d="M125.948 37.5C79.5569 37.5 41.9825 59.875 41.9825 87.5C41.9825 115.125 79.5569 137.5 125.948 137.5C172.338 137.5 209.913 115.125 209.913 87.5C209.913 59.875 172.338 37.5 125.948 37.5ZM41.9825 112.5V150C41.9825 177.625 79.5569 200 125.948 200C172.338 200 209.913 177.625 209.913 150V112.5C209.913 140.125 172.338 162.5 125.948 162.5C79.5569 162.5 41.9825 140.125 41.9825 112.5ZM41.9825 175V212.5C41.9825 240.125 79.5569 262.5 125.948 262.5C172.338 262.5 209.913 240.125 209.913 212.5V175C209.913 202.625 172.338 225 125.948 225C79.5569 225 41.9825 202.625 41.9825 175Z" fill="white"/>
</g>
</svg>
